<?xml version="1.0" encoding="UTF-8" standalone="no"?>
<svg
   xmlns:dc="http://purl.org/dc/elements/1.1/"
   xmlns:cc="http://creativecommons.org/ns#"
   xmlns:rdf="http://www.w3.org/1999/02/22-rdf-syntax-ns#"
   xmlns:svg="http://www.w3.org/2000/svg"
   xmlns="http://www.w3.org/2000/svg"
   viewBox="0 0 517.54797 115.24907"
   height="115.24907"
   width="517.54797"
   xml:space="preserve"
   id="svg2"
   version="1.1"><metadata
     id="metadata8"><rdf:RDF><cc:Work
         rdf:about=""><dc:format>image/svg+xml</dc:format><dc:type
           rdf:resource="http://purl.org/dc/dcmitype/StillImage" /></cc:Work></rdf:RDF></metadata><defs
     id="defs6"><clipPath
       id="clipPath18"
       clipPathUnits="userSpaceOnUse"><path
         id="path16"
         d="M 0,86.437 H 388.161 V 0 H 0 Z" /></clipPath></defs><g
     transform="matrix(1.3333333,0,0,-1.3333333,0,115.24907)"
     id="g10"><g
       id="g12"><g
         clip-path="url(#clipPath18)"
         id="g14"><g
           transform="translate(369.1774,59.1602)"
           id="g20"><path
             id="path22"
             style="fill:#1A3050;fill-opacity:1;fill-rule:nonzero;stroke:none"
             d="m 0,0 v -1.29 h 1.071 c 0.526,0 0.865,0.219 0.865,0.644 C 1.936,-0.229 1.597,0 1.071,0 Z m 1.082,0.602 c 0.974,0 1.554,-0.482 1.554,-1.248 0,-0.666 -0.493,-1.125 -1.324,-1.203 L 2.657,-3.424 H 1.838 L 0.547,-1.849 H 0 v -1.575 h -0.688 v 4.026 z m 3.15,-2.046 c 0,1.915 -1.508,3.435 -3.402,3.435 -1.935,0 -3.444,-1.52 -3.444,-3.435 0,-1.892 1.509,-3.423 3.444,-3.423 1.883,0 3.402,1.531 3.402,3.423 m 0.843,0 c 0,-2.296 -1.903,-4.177 -4.245,-4.177 -2.393,0 -4.287,1.881 -4.287,4.177 0,2.319 1.894,4.2 4.287,4.2 2.342,0 4.245,-1.881 4.245,-4.2 M -7.133,-25.394 H -26.767 V 0.885 h 19.484 v -4.806 h -14.246 v -5.818 h 13.59 v -4.806 h -13.59 v -6.044 h 14.396 z m -26.346,0 h -5.237 v 19.84 L -45.21,-22.86 h -5.537 l -6.495,17.157 v -19.691 h -5.237 V 0.885 h 7.677 l 6.833,-17.739 6.813,17.739 h 7.677 z m -56.605,13.139 c 0,-5.105 3.51,-8.597 8.334,-8.597 4.842,0 8.334,3.492 8.334,8.597 0,5.106 -3.492,8.598 -8.334,8.598 -4.824,0 -8.334,-3.492 -8.334,-8.598 m 22.149,0 c 0,-7.846 -5.725,-13.627 -13.815,-13.627 -8.09,0 -13.796,5.781 -13.796,13.627 0,7.847 5.706,13.627 13.796,13.627 8.09,0 13.815,-5.78 13.815,-13.627 m -50.956,2.553 h 12.652 V 0.885 h 5.236 v -26.279 h -5.236 v 10.812 h -12.652 v -10.812 h -5.237 V 0.885 h 5.237 z m -23.605,-15.692 h -2.065 l -17.212,22.337 -0.018,-22.337 h -2.29 V 0.885 h 2.064 l 17.231,-22.337 V 0.885 h 2.29 z m -53.133,13.139 c 0,-6.701 4.843,-11.224 11.074,-11.224 6.213,0 11.057,4.523 11.057,11.224 0,6.701 -4.844,11.225 -11.057,11.225 -6.231,0 -11.074,-4.524 -11.074,-11.225 m 24.533,0 c 0,-7.883 -5.781,-13.439 -13.459,-13.439 -7.676,0 -13.458,5.556 -13.458,13.439 0,7.884 5.782,13.44 13.458,13.44 7.678,0 13.459,-5.556 13.459,-13.44 m -48.986,10.982 v -10.381 h 7.715 c 4.355,0 6.72,1.858 6.72,5.237 0,3.36 -2.403,5.144 -6.72,5.144 z m 7.734,2.158 c 5.8,0 9.066,-2.647 9.066,-7.302 0,-4.524 -3.453,-7.32 -9.047,-7.32 h -1.032 l 9.947,-11.657 h -2.853 l -9.797,11.657 h -4.018 v -11.657 h -2.289 V 0.885 Z m -15.481,-2.178 h -9.479 v -24.101 h -2.29 v 24.101 h -9.46 v 2.178 h 21.229 z m -26.949,-2.29 c -2.046,1.445 -4.767,2.571 -8.221,2.571 -4.224,0 -7.321,-1.952 -7.321,-5.236 0,-2.609 1.933,-4.205 6.42,-4.711 l 2.871,-0.319 c 4.674,-0.526 8.072,-2.366 8.072,-6.739 0,-5.105 -4.655,-7.658 -10.324,-7.658 -3.942,0 -7.846,1.446 -10.174,3.284 l 1.258,1.822 c 1.84,-1.465 5.256,-2.929 8.898,-2.929 4.447,0 7.958,1.745 7.958,5.293 0,2.853 -2.29,4.242 -6.664,4.73 l -2.984,0.338 c -4.805,0.544 -7.715,2.703 -7.715,6.739 0,4.842 4.317,7.564 9.723,7.564 4.073,0 7.114,-1.276 9.385,-2.891 z m -24.921,-21.811 h -18.095 V 0.885 h 17.963 v -2.158 h -15.673 v -9.818 h 15.223 v -2.139 h -15.223 v -10.005 h 15.805 z m -41.722,24.121 v -10.381 h 7.715 c 4.355,0 6.72,1.858 6.72,5.237 0,3.36 -2.403,5.144 -6.72,5.144 z m 7.734,2.158 c 5.8,0 9.065,-2.647 9.065,-7.302 0,-4.524 -3.453,-7.32 -9.046,-7.32 h -1.033 l 9.948,-11.657 h -2.853 l -9.798,11.657 h -4.017 v -11.657 h -2.289 V 0.885 Z m -16.925,-5.106 -1.915,-1.276 c -1.821,2.759 -5.031,4.467 -8.709,4.467 -6.232,0 -11.075,-4.524 -11.075,-11.225 0,-6.701 4.843,-11.224 11.075,-11.224 3.66,0 6.87,1.67 8.69,4.467 l 1.878,-1.37 c -2.178,-3.285 -6.101,-5.312 -10.568,-5.312 -7.678,0 -13.458,5.556 -13.458,13.439 0,7.884 5.78,13.44 13.458,13.44 4.505,0 8.54,-2.065 10.624,-5.406" /></g></g></g></g></svg>
